<svg width="48" height="49" viewBox="0 0 48 49" fill="none" xmlns="http://www.w3.org/2000/svg">
<path fill-rule="evenodd" clip-rule="evenodd" d="M2 24.6836C2 12.5333 11.8497 2.68359 24 2.68359C36.1503 2.68359 46 12.5333 46 24.6836C46 36.8339 36.1503 46.6836 24 46.6836C11.8497 46.6836 2 36.8339 2 24.6836ZM22 34.1836V21.012L16.4142 26.5978C15.6332 27.3789 14.3668 27.3789 13.5858 26.5978C12.8047 25.8168 12.8047 24.5504 13.5858 23.7694L22.5989 14.7564C22.7804 14.5782 22.9958 14.4343 23.2344 14.3354C23.9594 14.0354 24.8262 14.1814 25.4155 14.7706L34.4142 23.7694C35.1953 24.5504 35.1953 25.8168 34.4142 26.5978C33.6332 27.3789 32.3668 27.3789 31.5858 26.5978L26 21.012V34.1836C26 35.2882 25.1046 36.1836 24 36.1836C22.8954 36.1836 22 35.2882 22 34.1836Z" fill="#999999"/>
</svg>
