<svg width="24" height="24" viewBox="0 0 24 24" fill="none" xmlns="http://www.w3.org/2000/svg">
<path d="M12 0C5.38312 0 0 5.38331 0 12C0 18.6171 5.38312 24 12 24C18.6169 24 24 18.6171 24 12C24 5.38331 18.6169 0 12 0ZM12 21.1428C6.95873 21.1428 2.85717 17.0416 2.85717 12C2.85717 6.95873 6.95873 2.85717 12 2.85717C17.0413 2.85717 21.1428 6.95873 21.1428 12C21.1428 17.0416 17.0413 21.1428 12 21.1428Z" fill="#999999"/>
<path d="M12.1151 5.42578C11.5146 5.42578 11.0278 5.91248 11.0278 6.51305V11.4353L7.55683 14.9062C7.1321 15.3307 7.1321 16.0192 7.55683 16.4439C7.98143 16.8684 8.66983 16.8684 9.09452 16.4439L13.2024 12.3361V11.2221V6.51305C13.2024 5.91248 12.7156 5.42578 12.1151 5.42578Z" fill="#999999"/>
</svg>
