<svg width="24" height="24" viewBox="0 0 24 24" fill="none" xmlns="http://www.w3.org/2000/svg">
<path fill-rule="evenodd" clip-rule="evenodd" d="M11.6685 22.2064C11.8577 22.374 12.1423 22.374 12.3315 22.2064L18.364 16.8639C19.6227 15.6052 20.4798 14.0016 20.8271 12.2558C21.1743 10.5099 20.9961 8.70035 20.3149 7.05582C19.6337 5.41129 18.4802 4.00569 17.0001 3.01677C15.5201 2.02784 13.78 1.5 12 1.5C10.22 1.5 8.47992 2.02784 6.99988 3.01677C5.51984 4.00569 4.36629 5.41129 3.6851 7.05582C3.00391 8.70035 2.82567 10.5099 3.17293 12.2558C3.52019 14.0016 4.37734 15.6052 5.636 16.8639L11.6685 22.2064ZM12 13.5C13.6569 13.5 15 12.1569 15 10.5C15 8.84315 13.6569 7.5 12 7.5C10.3431 7.5 9 8.84315 9 10.5C9 12.1569 10.3431 13.5 12 13.5Z" fill="#999999"/>
</svg>
