<svg width="20" height="20" viewBox="0 0 20 20" fill="none" xmlns="http://www.w3.org/2000/svg">
<path fill-rule="evenodd" clip-rule="evenodd" d="M10.0003 18.3327C14.6027 18.3327 18.3337 14.6017 18.3337 9.99935C18.3337 5.39698 14.6027 1.66602 10.0003 1.66602C5.39795 1.66602 1.66699 5.39698 1.66699 9.99935C1.66699 14.6017 5.39795 18.3327 10.0003 18.3327ZM10.0003 16.666C13.6822 16.666 16.667 13.6812 16.667 9.99935C16.667 6.31745 13.6822 3.33268 10.0003 3.33268C6.31843 3.33268 3.33366 6.31745 3.33366 9.99935C3.33366 13.6812 6.31843 16.666 10.0003 16.666Z" fill="#999999"/>
<path fill-rule="evenodd" clip-rule="evenodd" d="M10.0003 4.99935C10.4606 4.99935 10.8337 5.37245 10.8337 5.83268V9.16602H14.167C14.6272 9.16602 15.0003 9.53911 15.0003 9.99935C15.0003 10.4596 14.6272 10.8327 14.167 10.8327H10.8337V14.166C10.8337 14.6263 10.4606 14.9993 10.0003 14.9993C9.54009 14.9993 9.16699 14.6263 9.16699 14.166V10.8327H5.83366C5.37342 10.8327 5.00033 10.4596 5.00033 9.99935C5.00033 9.53911 5.37342 9.16602 5.83366 9.16602H9.16699V5.83268C9.16699 5.37245 9.54009 4.99935 10.0003 4.99935Z" fill="#999999"/>
</svg>
